<?xml version="1.0" standalone="no"?>
<!DOCTYPE svg PUBLIC "-//W3C//DTD SVG 20010904//EN"
 "http://www.w3.org/TR/2001/REC-SVG-20010904/DTD/svg10.dtd">
<svg version="1.0" xmlns="http://www.w3.org/2000/svg"
 width="721.000000pt" height="147.000000pt" viewBox="0 0 721.000000 147.000000"
 preserveAspectRatio="xMidYMid meet">

<g transform="translate(0.000000,147.000000) scale(0.100000,-0.100000)"
fill="#000000" stroke="none">
<path d="M1800 715 l0 -535 110 0 110 0 0 535 0 535 -110 0 -110 0 0 -535z"/>
<path d="M2210 715 l0 -535 105 0 105 0 0 535 0 535 -105 0 -105 0 0 -535z"/>
<path d="M6680 1150 l0 -100 110 0 110 0 0 100 0 100 -110 0 -110 0 0 -100z"/>
<path d="M513 982 c186 -186 247 -254 247 -272 0 -18 -61 -85 -245 -270 -135
-135 -245 -249 -245 -253 0 -4 76 -7 168 -7 l168 0 200 203 c111 112 208 218
217 239 21 45 22 117 2 164 -8 20 -99 123 -211 240 l-197 204 -176 0 -175 0
247 -248z"/>
<path d="M1150 1079 l-144 -152 29 -23 c75 -61 211 -58 286 4 19 15 99 94 179
175 l144 147 -175 0 -175 0 -144 -151z"/>
<path d="M4650 1085 l0 -105 -60 0 -60 0 0 -95 0 -95 60 0 60 0 0 -201 c0
-237 6 -266 70 -329 56 -57 97 -70 233 -77 l107 -6 0 97 0 96 -69 0 c-59 0
-74 4 -98 24 l-28 24 0 184 0 183 98 3 97 3 0 94 0 94 -97 3 -98 3 -3 103 -3
102 -104 0 -105 0 0 -105z"/>
<path d="M2923 985 c-87 -19 -155 -59 -218 -127 -182 -196 -118 -545 119 -654
165 -76 379 -45 506 73 33 30 60 61 60 68 0 8 -34 34 -76 60 l-76 46 -43 -40
c-99 -91 -272 -80 -346 22 -16 22 -29 48 -29 59 0 17 15 18 299 18 l299 0 6
34 c10 50 -11 172 -40 237 -28 62 -104 143 -163 173 -39 21 -152 46 -201 45
-19 0 -63 -7 -97 -14z m201 -195 c34 -20 76 -75 76 -99 0 -8 -55 -11 -191 -11
l-190 0 23 41 c39 70 100 101 190 95 36 -3 71 -12 92 -26z"/>
<path d="M3935 978 c-16 -6 -49 -23 -72 -39 l-43 -28 0 34 0 35 -110 0 -110 0
0 -400 0 -400 110 0 110 0 0 242 c0 221 2 245 20 283 26 54 80 85 149 85 69 0
108 -22 132 -73 17 -38 19 -68 19 -290 l0 -248 108 3 107 3 0 280 c0 320 -5
348 -78 431 -61 69 -121 94 -227 93 -47 0 -98 -5 -115 -11z"/>
<path d="M5956 979 c-115 -27 -224 -118 -277 -233 -31 -64 -34 -79 -33 -161 1
-146 50 -249 157 -330 126 -95 315 -111 441 -37 l36 21 0 -30 0 -30 108 3 107
3 3 398 2 397 -110 0 -110 0 0 -30 0 -29 -32 19 c-73 43 -202 60 -292 39z
m199 -208 c158 -72 167 -296 15 -381 -104 -57 -236 -19 -289 84 -60 117 -10
257 109 305 40 16 122 12 165 -8z"/>
<path d="M6682 583 l3 -398 108 -3 107 -3 0 401 0 400 -110 0 -110 0 2 -397z"/>
<path d="M1105 546 c-49 -15 -95 -44 -95 -60 0 -6 66 -78 148 -159 l147 -147
168 0 c92 0 167 4 167 8 0 4 -75 83 -167 174 -153 151 -173 168 -222 182 -64
19 -92 19 -146 2z"/>
<path d="M5240 295 l0 -116 113 3 112 3 0 110 0 110 -112 3 -113 3 0 -116z"/>
</g>
</svg>
